# Blender v2.75 (sub 0) OBJ File: 'G1.blend'
# www.blender.org
mtllib G1.mtl
o Curve_Mesh
v -0.306559 -0.476817 0.298255
v -0.137776 -0.476594 0.298255
v -0.126278 -0.429434 0.298255
v -0.084813 -0.374669 0.298255
v -0.038103 -0.352723 0.298255
v 0.001937 -0.350055 0.298255
v 0.038322 -0.359864 0.298255
v 0.080578 -0.390275 0.298255
v 0.113088 -0.448646 0.298255
v 0.116783 -0.476817 0.298255
v 0.119037 -0.476817 0.298255
v 0.125407 -0.476817 0.298255
v 0.135304 -0.476817 0.298255
v 0.148142 -0.476817 0.298255
v 0.163331 -0.476817 0.298255
v 0.180285 -0.476817 0.298255
v 0.198414 -0.476817 0.298255
v 0.217131 -0.476817 0.298255
v 0.235848 -0.476817 0.298255
v 0.253977 -0.476817 0.298255
v 0.270931 -0.476817 0.298255
v 0.286120 -0.476817 0.298255
v 0.286120 0.327363 0.298255
v -0.010219 0.575268 0.298255
v -0.306559 0.327363 0.298255
v -0.306559 -0.476817 -0.294745
v -0.137576 -0.476747 -0.294745
v -0.128107 -0.433612 -0.294745
v -0.088620 -0.377884 -0.294744
v -0.041415 -0.353570 -0.294745
v -0.001690 -0.349748 -0.294745
v 0.035331 -0.358558 -0.294745
v 0.077253 -0.386650 -0.294746
v 0.111804 -0.444574 -0.294745
v 0.116783 -0.476817 -0.294745
v 0.119037 -0.476817 -0.294745
v 0.125407 -0.476817 -0.294745
v 0.135304 -0.476817 -0.294745
v 0.148142 -0.476817 -0.294745
v 0.163331 -0.476817 -0.294745
v 0.180285 -0.476817 -0.294745
v 0.198414 -0.476817 -0.294745
v 0.217131 -0.476817 -0.294745
v 0.235848 -0.476817 -0.294745
v 0.253977 -0.476817 -0.294745
v 0.270931 -0.476817 -0.294745
v 0.286120 -0.476817 -0.294745
v 0.286120 0.327363 -0.294745
v -0.010219 0.575268 -0.294745
v -0.306559 0.327363 -0.294745
vt 1.000000 0.600637
vt 0.687651 0.600637
vt 0.843826 0.477525
vt 0.795974 0.957022
vt 0.687651 1.000000
vt 0.883137 0.949273
vt 0.858521 0.938374
vt 0.837419 0.937049
vt 0.818244 0.941920
vt 0.830073 0.000000
vt 0.835288 0.000000
vt 0.835288 0.353620
vt 0.830073 0.353620
vt 0.375303 0.600637
vt 0.531477 0.477525
vt 1.000000 1.000000
vt 0.904990 0.976469
vt 0.778841 0.986010
vt 0.911049 0.999889
vt 0.776894 1.000000
vt 0.000000 0.000000
vt 0.577576 0.955222
vt 0.490159 0.950869
vt 0.515036 0.938794
vt 0.535972 0.936896
vt 0.555483 0.941272
vt 0.375303 1.000000
vt 0.469349 0.978544
vt 0.595785 0.983988
vt 0.464358 0.999965
vt 0.598409 1.000000
vt 0.264275 0.856240
vt 0.245193 0.856158
vt 0.245004 0.502533
vt 0.264430 0.502617
vt 0.823309 0.000000
vt 0.823309 0.353620
vt 0.870994 0.000009
vt 0.896376 0.000014
vt 0.896376 0.353634
vt 0.873223 0.353629
vt 0.815305 0.000000
vt 0.815305 0.353620
vt 0.286260 0.856334
vt 0.286260 0.502710
vt 0.806372 0.000000
vt 0.806372 0.353620
vt 0.796819 0.000000
vt 0.796819 0.353620
vt 0.786956 0.000000
vt 0.786956 0.353620
vt 0.839832 0.000000
vt 0.841676 0.353620
vt 0.777093 0.000000
vt 0.777093 0.353620
vt 0.036018 0.855957
vt 0.002248 0.855955
vt 0.000000 0.502335
vt 0.033776 0.502337
vt 0.767541 0.000000
vt 0.767541 0.353620
vt 0.758607 0.000000
vt 0.758607 0.353620
vt 0.750604 0.000000
vt 0.750604 0.353620
vt 0.224071 0.856066
vt 0.199255 0.855959
vt 0.198938 0.502335
vt 0.224036 0.502443
vt 0.375302 0.105568
vt 0.375303 0.502335
vt 0.000034 0.105559
vt 0.050930 0.855957
vt 0.050930 0.502337
vt 0.375269 0.000009
vt 0.838645 0.000000
vt 0.839832 0.353620
vt 0.838645 0.353620
vt 0.375335 0.087859
vt 0.750604 0.087875
vt 0.375335 0.477509
vt 0.750604 0.477525
vt 0.286363 0.502335
vt 0.375303 0.855954
vt 0.286260 0.855955
vn 0.000000 -0.000000 1.000000
vn 0.000000 -1.000000 0.000000
vn 0.000000 0.000000 -1.000000
vn -0.245900 -0.969300 0.000100
vn 0.974100 -0.226200 -0.000500
vn -0.570700 -0.821200 -0.000400
vn 0.806700 -0.591000 -0.000100
vn -0.866300 -0.499500 0.000100
vn 0.441900 -0.897100 0.000400
vn 1.000000 0.000000 0.000000
vn -0.989800 -0.142100 0.000600
vn 0.641600 0.767000 0.000000
vn 0.081100 -0.996700 -0.000000
vn -0.641600 0.767000 0.000000
vn -1.000000 0.000000 0.000000
vn 0.000900 -1.000000 0.000100
usemtl Material.001
s off
f 25/1/1 23/2/1 24/3/1
f 23/2/1 8/4/1 22/5/1
f 4/6/1 5/7/1 25/1/1
f 5/7/1 6/8/1 25/1/1
f 6/8/1 7/9/1 23/2/1
f 13/10/2 12/11/2 37/12/2 38/13/2
f 50/14/3 49/15/3 48/2/3
f 25/1/1 6/8/1 23/2/1
f 1/16/1 4/6/1 25/1/1
f 1/16/1 3/17/1 4/6/1
f 9/18/1 22/5/1 8/4/1
f 1/16/1 2/19/1 3/17/1
f 10/20/1 22/5/1 9/18/1
f 11/21/1 22/21/1 10/21/1
f 12/21/1 22/21/1 11/21/1
f 13/21/1 22/21/1 12/21/1
f 14/21/1 22/21/1 13/21/1
f 15/21/1 22/21/1 14/21/1
f 16/21/1 22/21/1 15/21/1
f 17/21/1 22/21/1 16/21/1
f 18/21/1 22/21/1 17/21/1
f 19/21/1 22/21/1 18/21/1
f 20/21/1 22/21/1 19/21/1
f 21/21/1 22/21/1 20/21/1
f 8/4/1 23/2/1 7/9/1
f 48/2/3 47/5/3 33/22/3
f 29/23/3 50/14/3 30/24/3
f 30/24/3 50/14/3 31/25/3
f 31/25/3 48/2/3 32/26/3
f 50/14/3 48/2/3 31/25/3
f 26/27/3 50/14/3 29/23/3
f 26/27/3 29/23/3 28/28/3
f 34/29/3 33/22/3 47/5/3
f 26/27/3 28/28/3 27/30/3
f 35/31/3 34/29/3 47/5/3
f 36/21/1 35/21/1 47/21/1
f 37/21/1 36/21/1 47/21/1
f 38/21/1 37/21/1 47/21/1
f 39/21/1 38/21/1 47/21/1
f 40/21/1 39/21/1 47/21/1
f 41/21/1 40/21/1 47/21/1
f 42/21/1 41/21/1 47/21/1
f 43/21/1 42/21/1 47/21/1
f 44/21/1 43/21/1 47/21/1
f 45/21/1 44/21/1 47/21/1
f 46/21/1 45/21/1 47/21/1
f 33/22/3 32/26/3 48/2/3
f 7/32/4 6/33/4 31/34/4 32/35/4
f 14/36/2 13/10/2 38/13/2 39/37/2
f 3/38/5 2/39/5 27/40/5 28/41/5
f 15/42/2 14/36/2 39/37/2 40/43/2
f 8/44/6 7/32/6 32/35/6 33/45/6
f 16/46/2 15/42/2 40/43/2 41/47/2
f 17/48/2 16/46/2 41/47/2 42/49/2
f 18/50/2 17/48/2 42/49/2 43/51/2
f 4/52/7 3/38/7 28/41/7 29/53/7
f 19/54/2 18/50/2 43/51/2 44/55/2
f 9/56/8 8/57/8 33/58/8 34/59/8
f 20/60/2 19/54/2 44/55/2 45/61/2
f 21/62/2 20/60/2 45/61/2 46/63/2
f 22/64/2 21/62/2 46/63/2 47/65/2
f 5/66/9 4/67/9 29/68/9 30/69/9
f 23/70/10 22/71/10 47/58/10 48/72/10
f 10/73/11 9/56/11 34/59/11 35/74/11
f 24/75/12 23/70/12 48/72/12 49/21/12
f 11/76/2 10/52/2 35/77/2 36/78/2
f 6/33/13 5/66/13 30/69/13 31/34/13
f 25/79/14 24/75/14 49/64/14 50/80/14
f 12/11/2 11/76/2 36/78/2 37/12/2
f 1/81/15 25/79/15 50/80/15 26/82/15
f 2/83/16 1/71/16 26/84/16 27/85/16